<?xml version="1.0" encoding="utf-8"?>
<!-- Generator: Adobe Illustrator 19.0.0, SVG Export Plug-In . SVG Version: 6.00 Build 0)  -->
<svg version="1.1" id="Layer_1" xmlns="http://www.w3.org/2000/svg" xmlns:xlink="http://www.w3.org/1999/xlink" x="0px" y="0px"
	 viewBox="0 0 607.2 314" style="enable-background:new 0 0 607.2 314;" xml:space="preserve">
<style type="text/css">
	.st0{fill:#FFFFFF;}
</style>
<g>
	<path class="st0" d="M347.8,272.1c-6.6,5-3.9,11.2-5,16.5c-1.4,6.8-1.3,14.2-7.4,18.8c-5.3,4.1-11.4,6.5-18.5,5.1
		c-4-0.8-6.7-3.3-10-5.2c-9.8-5.6-9.9-15.9-13.8-24.3c-5.6-12.1-4.2-25.3-5.7-38c-1.4-12.2-1.1-24.8-0.1-37.1
		c1.2-14.9,3.6-29.6,5.9-44.4c1.6-10.1,8-17.3,17.2-20.9c8.1-3.2,16.3-1.5,24,3.6c6.3,4.1,9.7,10.2,13.8,15.9
		c2.2,3,3.7,6.7,4.8,10.3c2,6.4,3,13.2,5.4,19.4c2.6,6.6,4.6,13.5,8.6,19.5c3.5,5.3,7.1,10.5,11,15.6c2.2,3,4.9,2.1,5.7-1
		c1.2-4.6,2.4-9.4,2.1-14.1c-0.8-10.8-2.5-21.6-3.8-32.4c-0.5-3.9-0.8-7.9-1-11.8c-0.1-3.9-0.8-8.2,4.2-10c0.3-0.1,0.5-0.5,0.6-0.8
		c1.6-11,10-13.4,19-14.4c15.1-1.6,21,2.9,26.6,16.9c4.9,12.3,7.8,25,9.6,37.9c0.6,4.3,0.5,8.7,0.5,13c0,7.5-0.1,14.9-0.3,22.4
		c-0.2,8.3,0,16.7-1.2,24.9c-1.2,7.7-3.9,15.1-6.1,22.6c-0.9,3.1-1.8,6.2-3.3,8.9c-2.7,4.7-5.5,9.6-9.2,13.6
		c-5.6,6.1-13.2,10.8-21,11.1c-7.6,0.3-16-1.2-22.2-7.6c-3-3.1-7.2-5-10.5-7.9c-6-5.3-9.6-12.2-12.7-19.5
		C353.8,276.2,350.3,274.4,347.8,272.1z"/>
	<path class="st0" d="M518.3,309.9c-12.3-1.8-24.7-3.1-37-5.4c-13.4-2.5-20.3-10.9-21.2-25.6c-1-16.3-1.5-32.7-2-49.1
		c-0.5-16.2-0.9-32.3-0.9-48.5c0-7.5,0.8-15.2,5.4-21.7c5.2-7.2,11-12.9,20.4-16c21.6-7.2,39.6,1.5,57.3,10.8
		c10.9,5.7,20.8,13.3,30.8,20.6c8.3,6,15.1,13.5,19.9,22.7c2.5,4.8,6.3,8.9,8.2,13.9c3.2,8.4,6.7,17,7.7,25.8
		c1,8.4-0.7,17.2-1.8,25.7c-0.4,3-2.6,5.7-3.9,8.5c-6.6,13.7-18,22.3-31.5,28c-7.8,3.3-16.1,6.2-24.4,7.6
		c-8.7,1.5-17.8,1.2-26.7,1.7C518.5,309.3,518.4,309.6,518.3,309.9z M506.6,211.3c0.3,0,0.5,0.1,0.8,0.1c0.3,6.5,0.3,13,1,19.4
		c1.2,11.2,7.9,16.6,18.8,15.6c2-0.2,3.9-0.6,5.8-1c8.1-1.9,15.3-9.8,13.9-16.4c-3.4-16-12.3-28.7-25.2-38.5
		c-4.5-3.4-9.9-1.4-11.5,3.9C508.6,200,507.8,205.7,506.6,211.3z"/>
	<path class="st0" d="M129.6,272.4c1.4-9.3,2.8-20.4,4.9-31.4c1.9-10.4,4.3-20.6,6.8-30.8c0.9-3.5,2.8-6.7,4.2-10.1
		c2.8-6.9,4.8-14.2,8.4-20.6c4.6-8.2,10.4-15.7,16-23.3c7.9-10.7,19.1-15.8,32.1-14.5c7.1,0.7,14.1,3.5,19.4,9.4
		c2.7,3,6.9,4.8,9.5,7.8c4.1,4.6,7.6,9.8,11.1,14.9c3.3,4.8,6.4,9.7,9.2,14.8c2.2,3.9,4,8,5.5,12.3c2.8,7.9,5.2,15.9,7.8,23.9
		c1.3,4,3.1,7.9,3.8,11.9c1.1,6.2,1.4,12.5,2,18.8c0.7,7.9,2.1,15.7,1.9,23.6c-0.1,7.5-1.1,15.1-3.2,22.2c-0.9,3-5.6,6.3-9,6.8
		c-11.5,1.8-23.2,2.7-34.9,3.4c-3.8,0.2-10.8-8.5-10.6-12.5c0.3-6.3-2.6-11.4-6.5-15.6c-1.6-1.8-6.8-2.6-8.5-1.4c-2.6,2-4.1,6-5,9.4
		c-1.3,4.4-1.1,9.1-2.4,13.5c-2.1,7.5-2.9,7.9-11,7.8c-8.9-0.2-17.9,0-26.7-1.2c-5.8-0.8-12.2-1.9-16.4-6.8c-4.3-5-7-10.7-6.9-17.6
		C131.1,282.8,130.2,278.5,129.6,272.4z M183.2,234.3c-0.1,6.9,2.4,8.5,7.1,5.6c2.3-1.4,4.5-3.5,6.2-5.6c2.7-3.4,4.8-2.7,7.7-0.3
		c3,2.5,6.3,4.7,9.8,6.7c3.4,1.9,5.8,0.5,5.2-3.3c-0.6-4.2-1.8-8.3-3.2-12.3c-1-2.9-2-4.7,2.2-5.6c2.6-0.6,5.2-2.3,7.3-4.1
		c1.5-1.3,2.8-3.6,2.7-5.4c-0.1-1.3-2.5-2.8-4.2-3.4c-3.1-1.1-6.4-1.8-9.6-2c-3.2-0.2-5.3-1.1-6.5-4.2c-1.1-2.7-2.4-5.4-4-7.9
		c-2.5-4.1-5.3-4-7.7,0.2c-1.3,2.3-2.9,4.6-3.4,7.1c-1,4.5-4.1,5.3-7.9,5.9c-2.9,0.4-5.8,1.2-8.5,2.3c-3.8,1.6-3.9,3.6-0.7,6.1
		c2.5,1.9,5,3.8,7.6,5.5c2.4,1.5,3.4,3.1,2.2,6.1C184.1,228.8,183.7,232.3,183.2,234.3z"/>
	<path class="st0" d="M114.8,272.1c-1.4,9.3-4.2,15.1-10,20.4c-3.6,3.3-7,6.6-11.1,9.3c-6.9,4.6-14.6,7.4-22.7,7.7
		c-9,0.3-18.2-1.8-27.2-1.4c-11.7,0.6-21.1-4.9-28.9-11.7C9.4,291.5,4,284.9,3.8,275.9c-0.2-7-2-13.9-2.8-20.8
		c-0.4-3.6,0.2-7.2,0.1-10.8c-0.3-10.6-0.8-21.2-0.9-31.8C0,199.2-0.1,186,0.2,172.7c0.2-6.3,0.2-13.2,2.7-18.7
		c2.6-5.8,7.9-10.3,15.1-11.6c7.4-1.3,14.7-2,22.2-0.1c6.2,1.6,12.3,9.8,14.5,15.3c2.5,6.5,2.2,12.6,2.1,19
		c-0.1,4.9-0.7,9.8-1.5,14.6c-2.4,14-3.8,27.9-2.4,42.2c0.6,5.9,3.1,10.5,6.5,14.3c5.2,5.9,12.1,3.9,18.8,2.2
		c8.2-2.1,16.5-4.4,23.4,3.7c2.2,2.6,6.8,2.6,8.1,7.1C111,265.3,113.5,269.3,114.8,272.1z"/>
	<path class="st0" d="M317.3,44.1c0,6.4,0.2,12.7-0.1,19.1c-0.5,10.9-1.6,21.8-2,32.8c-0.1,3.1-1.2,7.8,5.3,6.7
		c2.8-0.5,4.7,3.1,3.3,5.7c-3,5.8-7.7,9.2-14.4,9.3c-1.2,0-2.3,0-3.5,0c-8.1,0-8.3,0-7.8-7.8c0.6-10.5-2.2-20.7-3-31.1
		c-0.7-8.5-0.2-17.1,0-25.6c0.3-11.8,2.8-23.2,6-34.4c1-3.4,2.1-6.9,3.5-10.2c2-4.6,11.9-4.4,16.1-1.9c7.5,4.4,10.1,12.1,14.5,18.4
		c4.4,6.2,6.1,14.3,9.2,21.5c2.9,6.8,6,13.5,9.3,20.2c2.4,4.9,5.4,9.5,8.2,14.3c0.7-0.1,1.4-0.3,2.2-0.4c0.7-4,1.8-7.9,2-12
		c0.3-6.9,0.1-13.7,0.1-20.6c0-6.6,0-13,2.7-19.4c1.5-3.5,1.3-7.7,2.4-11.5c1.5-4.9,5.6-7.6,10.4-8.5c3.2-0.6,6.1,0.8,6.1,4.9
		c0.2,9.9,0.6,19.8,0.5,29.7c-0.1,13.8-0.5,27.5-1,41.3c-0.2,5.6-0.7,11.2-1.4,16.8c-1,8-6.7,11.4-13.8,13.2
		c-6.3,1.6-11.6,0.2-16.4-4.8c-5.3-5.4-9.7-11.3-13.6-17.6c-0.8-1.3-1.3-2.7-1.9-4.1c-0.6-1.3-0.9-3.2-2-3.8
		c-6.8-3.9-7.7-11.3-10.9-17.3c-1.8-3.4-3.3-7-4.6-10.6c-1.4-4-2.5-8.2-3.7-12.4C318.4,44.1,317.8,44.1,317.3,44.1z"/>
	<path class="st0" d="M595.8,101.4c3.2-1.2,6.1-2.2,9.9-3.6c-0.3,2.9,0.2,6-0.9,8.4c-2.7,6.2-7.5,9.1-14.6,8
		c-10.2-1.6-19.6-4.6-26-13.2c-3-4-5.6-8.4-7.9-12.9c-1.8-3.5-3.2-5.5-7.9-4.6c-5.8,1.1-11.8,0.9-17.7,1.1c-3.1,0.1-5,0.8-5.7,4.5
		c-1.1,5.8-3.2,11.5-4.7,17.2c-1.4,5.2-9.3,11.2-14.8,11c-3.1-0.1-6.3,0.1-9.2-0.8c-1.3-0.4-3.1-3.1-2.9-4.5
		c1.1-8.1,3.8-16.1,3.8-24.2c0.1-10.8,7.3-19,8.5-29.2c0.3-3.1,0.7-6.2,1.5-9.2c1.1-3.9,2.5-7.7,4.2-11.3
		c4.3-8.9,8.9-17.6,13.2-26.5c2.9-6,11.7-9.7,18.5-8.9c11.6,1.2,15.9,9.9,19.1,18.7c5.8,15.9,9.7,32.5,15.4,48.4
		C581.6,81.3,586.9,92.6,595.8,101.4z M541.8,40.7c-3.7,12.2-7,23.2-10.4,34.6c7.2,0,12.9,0,18.7,0C547.4,64,544.7,53.1,541.8,40.7z
		"/>
	<path class="st0" d="M116.4,4.6c9.3,0.8,11.7,3.8,11.9,15.6c0.1,10.1,0,20.1,0.1,30.2c0,6.3,1.5,7.6,7.7,7.1
		c4.4-0.4,8.9-0.7,13.3-1c3.2-0.2,5.2-1,4.3-5.2c-0.6-2.9,0.4-6.1,0.5-9.2c0.4-5.8,0.5-11.6,1-17.4c0.5-5.4,1-10.8,2.2-16
		c0.4-1.7,3.3-3.8,5.2-3.9c4.4-0.3,9,0.1,13.4,1c3.3,0.6,5,3.2,5.9,6.7c2.8,11.2,2.1,22.3,0.7,33.6c-0.9,7.6-1.2,15.4-1.2,23.1
		c0,4.2,1.8,8.4,1.7,12.6c-0.2,6.8-1.2,13.6-2.1,20.4c-0.4,3.1-0.5,6.4-1.8,9.1c-2.6,5.4-8.8,7.5-14.3,5.4c-4.5-1.7-3.4-6.3-4.5-9.7
		c-0.1-0.3,0.3-0.9,0.5-1.3c-8.2-2.1-1.8-9.3-4.7-13.8c-2.6-4.1-1.5-10.5-2.2-15.8c-0.5-3.7-1.2-7.4-2.1-11
		c-0.2-0.8-1.6-1.9-2.3-1.8c-5.9,0.4-11.8,1.1-17.6,1.7c-5.2,0.6-6.1,4.6-6.7,8.7c-1.4,8.9-2.7,17.9-4,26.8
		c-0.2,1.7-0.4,3.4-0.2,5.1c0.7,5-0.7,7.3-5.8,8.8c-3.1,0.9-6.2,2.2-9.3,2.5c-4.4,0.4-9.7-5.6-9.3-10.1c0.8-10.5,1.3-21,2.5-31.5
		c1.3-12.1,3.5-24.1,4.8-36.1c0.8-7.9,0.9-16,1.1-24C105.3,5.1,106.6,3.7,116.4,4.6z"/>
	<path class="st0" d="M278.3,4.8c0.6,7.2,3.2,13.9,0.5,21.4c-1.8,4.9-1.4,10.7-1.5,16.1c-0.1,13.8-3.4,27.1-6.7,40.4
		c-1.7,6.9-3.1,14.1-6,20.6c-2.8,6.1-8.7,9.8-15.3,11.2c-7.3,1.5-14.8,2-22.2,3.2c-8.8,1.4-22.7-7.8-24.3-15.8
		c-0.6-3.1-3-5.7-3.8-8.8c-3.7-13.7-2.5-27.5-0.7-41.3c1.4-10.9,3.1-21.8,4.7-32.8c0.6-4.2,0.9-8.5,2.3-12.5
		c0.6-1.8,3.1-3.4,5.1-4.2c4.1-1.5,11.8,0.6,13.3,4c1.2,2.8,1.4,6.2,1.3,9.4c-0.8,15.1-2.2,30.2-2.6,45.3
		c-0.2,8.8,1.2,17.7,1.9,26.5c0.1,1.4,0.1,2.8,0.4,4.2c0.5,2.3,1.2,4.7,2,6.9c0.4,1.1,1.5,2,1.5,3c0.2,3.3,2.3,4.7,4.8,6.2
		c6.4,3.7,11.6,1.7,14-5.3c2.3-6.5,3.5-13,4.2-19.9c1.5-13.6,4.4-27.1,6.5-40.6c1.3-8.1,2.1-16.2,3.3-24.3
		C262.3,10.1,269.7,4.2,278.3,4.8z"/>
	<path class="st0" d="M460.2,73.3c-8.3-0.6-16-1.1-23.7-1.7c-0.1-0.7-0.2-1.5-0.3-2.2c2.4-1,4.8-2.7,7.2-2.9
		c9.3-0.6,18.5-0.9,27.8-1.1c8-0.2,11.3,5,8.2,12.5c-3,7.3-5.9,14.6-8.9,21.9c-2.9,7.2-8.8,11.5-15.5,14.1c-6,2.3-12.6,4.2-19,4.2
		c-9.1,0-17.4-3.6-22.8-11.6c-7.5-11-10.6-23.4-10-36.6c0.3-7.7,0.6-15.5,2.1-23.1c2.2-11.6,5.9-22.9,12.2-33
		c2.4-3.9,5.7-7.5,9.1-10.6c5.9-5.2,13.3-3.2,20-2.6c5.7,0.5,11.2,3.2,17,4.1c5.3,0.8,8.6,3.7,11.2,7.9c1.6,2.6,3.7,4.9,4.8,7.6
		c0.8,2,1.3,5.6,0.2,6.5c-2,1.6-5.2,2.5-7.8,2.3c-1.8-0.2-4.1-2.5-4.8-4.4c-2.5-7.9-8.8-12.5-14.9-16.7c-2.5-1.7-6.2-0.5-9.4,3.4
		c-10.5,12.9-13.1,28.6-16.1,43.8c-2,10-1.2,20.7-0.2,31c0.5,5,4.9,9.5,6.4,14.5c1.6,5.4,5.6,7.5,9.9,8.8c5,1.6,8.2-1.1,9.6-6.5
		C455,93.6,457.5,84,460.2,73.3z"/>
	<path class="st0" d="M55.4,27.3c-1-6.2-3.8-11.5-8.1-14.8c-5.9-4.6-12.1-1.2-13,6.3c-1.5,12.2-3.5,24.3-4.2,36.5
		c-0.6,9.8,0.5,19.7,0.3,29.6c-0.2,8.1,4.2,14.3,8.5,19.7c2.7,3.4,9.2,4.4,14.1,4.8c1.9,0.2,4.3-4.1,6.3-6.6
		c2.3-2.8,4.4-5.7,6.5-8.6c1.3-1.9,1.9-4.4,3.5-5.8c2-1.9,4.7-4.1,7.1-4.1c4.2,0,5.7,3.4,3.7,9c-1.6,4.5-3.5,9.5-6.9,12.6
		c-6.6,6.1-12.9,13.1-23.8,12c-9.7-1-19.6,0.5-28.8-4.4c-11.5-6.1-18-15-19.7-28.3C-1.2,68.8,1,52.8,3.4,36.9c1.3-8.3,5.8-16,8.7-24
		c2.5-6.8,7.8-8.4,14.3-8.5c6.3-0.1,12.7-1.5,18.9-0.7c6.2,0.8,13.3,2.2,17.7,5.9c4,3.4,9.3,8,9,14.8c-0.1,1.4-2.2,3.9-3.4,3.9
		C64.3,28.5,60,27.7,55.4,27.3z"/>
</g>
</svg>
